<svg xmlns="http://www.w3.org/2000/svg" xmlns:xlink="http://www.w3.org/1999/xlink" width="500" zoomAndPan="magnify" viewBox="0 0 375 374.999991" height="500" preserveAspectRatio="xMidYMid meet" version="1.0"><defs><g/><clipPath id="7729223373"><path d="M 33 157 L 102 157 L 102 226 L 33 226 Z M 33 157 " clip-rule="nonzero"/></clipPath><clipPath id="d009c43fc6"><path d="M 100.601562 226.808594 L 32.375 225.054688 L 34.128906 156.828125 L 102.355469 158.582031 Z M 100.601562 226.808594 " clip-rule="nonzero"/></clipPath><clipPath id="bdbf6accdb"><path d="M 100.601562 226.808594 L 32.375 225.054688 L 34.128906 156.828125 L 102.355469 158.582031 Z M 100.601562 226.808594 " clip-rule="nonzero"/></clipPath></defs><g clip-path="url(#7729223373)"><g clip-path="url(#d009c43fc6)"><g clip-path="url(#bdbf6accdb)"><path fill="#edb8b8" d="M 68.171875 160.421875 C 85.023438 160.851562 98.476562 174.554688 98.757812 191.261719 L 92.957031 191.109375 C 92.808594 184.648438 90.277344 178.535156 85.730469 173.789062 C 80.957031 168.792969 74.609375 165.964844 67.816406 165.792969 C 67.71875 165.789062 67.625 165.785156 67.542969 165.785156 C 53.402344 165.570312 41.652344 176.957031 41.355469 191.230469 C 41.460938 194.582031 42.496094 203.113281 49.664062 209.976562 C 55.742188 215.796875 62.78125 217.125 66.488281 217.414062 L 84.839844 217.882812 C 79.617188 221.394531 73.3125 223.375 66.558594 223.203125 C 49.253906 222.773438 35.535156 208.328125 35.980469 191.011719 C 36.425781 173.695312 50.871094 159.976562 68.171875 160.421875 Z M 81.742188 190.824219 L 75.53125 190.664062 C 71.847656 190.105469 68.835938 187.691406 67.679688 184.332031 C 66.601562 181.203125 67.558594 178.402344 68.25 176.972656 C 75.597656 177.570312 81.355469 183.523438 81.742188 190.824219 Z M 94.742188 207.175781 L 67.179688 206.453125 C 63.152344 206.417969 59.371094 204.75 56.554688 201.808594 C 53.773438 198.910156 52.300781 195.144531 52.414062 191.214844 C 52.53125 187.164062 54.277344 183.535156 57.007812 180.941406 C 56.804688 181.949219 56.667969 182.96875 56.640625 184.019531 C 56.398438 193.460938 63.515625 201.320312 72.507812 201.550781 L 97 202.179688 C 96.398438 203.925781 95.628906 205.597656 94.742188 207.175781 Z M 97.808594 199.496094 L 72.589844 198.847656 C 65.101562 198.65625 59.179688 192.046875 59.382812 184.101562 C 59.433594 182.109375 59.867188 180.210938 60.648438 178.429688 C 62.085938 177.714844 63.65625 177.25 65.300781 177.046875 C 64.582031 179.019531 64.011719 181.96875 65.132812 185.222656 C 66.628906 189.574219 70.496094 192.691406 75.246094 193.371094 C 75.296875 193.375 75.351562 193.390625 75.40625 193.390625 L 98.6875 193.988281 C 98.554688 195.871094 98.261719 197.707031 97.808594 199.496094 Z M 88.242188 215.253906 L 66.640625 214.699219 C 63.355469 214.449219 57.023438 213.261719 51.558594 208.015625 C 45.109375 201.84375 44.1875 194.160156 44.085938 191.21875 C 44.359375 178.5 54.859375 168.3125 67.511719 168.5 C 73.628906 168.589844 79.449219 171.140625 83.769531 175.664062 C 87.8125 179.890625 90.074219 185.300781 90.230469 191.042969 L 84.457031 190.894531 C 84.101562 181.859375 76.792969 174.5 67.640625 174.199219 C 67.597656 174.195312 67.558594 174.183594 67.519531 174.179688 C 67.464844 174.179688 67.421875 174.191406 67.382812 174.191406 C 57.894531 174.027344 49.972656 181.59375 49.699219 191.132812 C 49.566406 195.796875 51.292969 200.253906 54.59375 203.683594 C 57.917969 207.15625 62.398438 209.113281 67.136719 209.167969 L 93.0625 209.847656 C 91.660156 211.832031 90.042969 213.648438 88.242188 215.253906 Z M 66.488281 225.933594 C 75.234375 226.15625 83.300781 223.058594 89.472656 217.785156 C 89.585938 217.707031 89.695312 217.625 89.78125 217.519531 C 92.433594 215.199219 94.730469 212.472656 96.570312 209.433594 C 96.652344 209.324219 96.726562 209.21875 96.78125 209.082031 C 98.226562 206.648438 99.371094 204.015625 100.167969 201.222656 C 100.167969 201.210938 100.179688 201.195312 100.183594 201.183594 C 100.960938 198.472656 101.402344 195.628906 101.476562 192.695312 C 101.960938 173.890625 87.058594 158.1875 68.242188 157.703125 C 49.425781 157.222656 33.734375 172.136719 33.25 190.941406 C 32.765625 209.746094 47.683594 225.449219 66.488281 225.933594 " fill-opacity="1" fill-rule="nonzero"/></g></g></g><g fill="#545454" fill-opacity="1"><g transform="translate(107.544738, 222.877164)"><g><path d="M 30.929688 -37.152344 C 37.023438 -38.4375 41.441406 -41.828125 41.3125 -49.292969 C 41.140625 -59.800781 30.886719 -61.476562 14.414062 -61.476562 L 1.074219 -61.476562 C 1.074219 -61.476562 2.875 -60.917969 2.875 -55.8125 L 2.875 -6.007812 C 2.875 -0.902344 1.074219 -0.0429688 1.074219 -0.0429688 L 26.554688 -0.0429688 C 37.753906 -0.0429688 47.40625 -7.078125 47.40625 -18.316406 C 47.40625 -28.785156 42.683594 -35.308594 30.929688 -37.152344 Z M 8.109375 -55.855469 C 8.109375 -57.742188 8.324219 -58.988281 8.621094 -59.84375 L 15.660156 -59.84375 C 28.957031 -59.84375 35.90625 -57.058594 35.863281 -49.378906 C 35.863281 -40.625 30.671875 -37.667969 23.039062 -37.667969 C 14.929688 -37.667969 10.554688 -36.507812 8.109375 -35.390625 Z M 23.464844 -1.929688 L 8.664062 -1.929688 C 8.324219 -2.789062 8.109375 -4.117188 8.109375 -6.007812 L 8.109375 -33.246094 C 9.480469 -34.707031 12.65625 -36.550781 20.035156 -36.550781 C 31.960938 -36.550781 41.957031 -33.289062 41.957031 -18.402344 C 41.957031 -6.476562 32.21875 -1.929688 23.464844 -1.929688 Z M 23.464844 -1.929688 "/></g></g></g><g fill="#545454" fill-opacity="1"><g transform="translate(156.868999, 222.877164)"><g><path d="M 6.476562 -23.980469 L 6.476562 -24.539062 L 44.53125 -24.539062 C 44.53125 -39.984375 35.691406 -45.902344 23.550781 -45.902344 C 11.367188 -45.902344 1.074219 -36.421875 1.074219 -23.765625 C 1.074219 -11.109375 10.46875 0.0429688 25.183594 0.0429688 C 34.792969 0.0429688 42.429688 -6.390625 43.15625 -13.214844 C 40.199219 0.6875 6.777344 3.605469 6.476562 -23.980469 Z M 23.550781 -43.929688 C 34.75 -43.929688 39.640625 -36.121094 39.640625 -25.867188 L 6.519531 -25.867188 C 7.25 -36.378906 14.84375 -43.929688 23.550781 -43.929688 Z M 23.550781 -43.929688 "/></g></g></g><g fill="#545454" fill-opacity="1"><g transform="translate(203.319592, 222.877164)"><g><path d="M 36.164062 -19.089844 C 36.164062 -10.46875 30.417969 -2.445312 20.078125 -2.445312 C 11.796875 -2.445312 6.519531 -6.605469 6.519531 -14.886719 C 6.519531 -31.359375 34.105469 -28.140625 35.90625 -33.074219 C 32.261719 -28.054688 1.074219 -33.933594 1.074219 -13.257812 C 1.074219 -8.578125 4.890625 0 18.960938 0 C 28.613281 0 33.632812 -5.707031 36.164062 -11.453125 L 36.164062 -5.707031 C 36.164062 -0.515625 39.46875 0 43.15625 0 C 43.15625 0 41.398438 -0.558594 41.398438 -5.664062 L 41.398438 -30.757812 C 41.441406 -38.609375 39.210938 -45.945312 24.796875 -45.945312 C 16.945312 -45.945312 9.050781 -43.199219 5.148438 -35.007812 L 9.738281 -31.960938 C 11.496094 -39.511719 17.289062 -44.53125 24.753906 -44.53125 C 34.964844 -44.53125 36.164062 -37.667969 36.164062 -30.714844 Z M 36.164062 -19.089844 "/></g></g></g><g fill="#545454" fill-opacity="1"><g transform="translate(248.397684, 222.877164)"><g><path d="M 8.109375 -13 C 8.109375 -40.28125 8.109375 -40.28125 8.109375 -40.28125 C 8.109375 -45.429688 8.109375 -45.988281 8.109375 -45.988281 L 1.074219 -43.242188 C 1.074219 -43.242188 2.875 -42.683594 2.875 -37.582031 L 2.875 -12.011719 C 2.875 1.972656 29.988281 6.261719 32.820312 -12.914062 C 28.527344 2.058594 8.109375 1.929688 8.109375 -13 Z M 31.316406 0 L 40.113281 0 C 40.113281 0 38.351562 -0.558594 38.351562 -5.664062 L 38.308594 -45.945312 L 31.316406 -43.242188 C 31.316406 -43.242188 33.117188 -42.386719 33.117188 -37.28125 L 33.117188 -5.707031 C 33.117188 -0.601562 31.316406 0 31.316406 0 Z M 31.316406 0 "/></g></g></g><g fill="#545454" fill-opacity="1"><g transform="translate(290.430537, 222.877164)"><g><path d="M 19.21875 -21.0625 L 8.28125 -5.964844 C 4.589844 -0.859375 2.144531 0 2.144531 0 L 6.691406 0 C 6.691406 0 5.535156 -0.859375 9.265625 -5.964844 L 19.691406 -20.378906 L 29.386719 -5.664062 C 32.777344 -0.558594 31.359375 0 31.359375 0 L 40.15625 0 C 40.15625 0 37.964844 -0.601562 34.578125 -5.707031 L 22.4375 -24.152344 L 34.105469 -40.238281 C 37.792969 -45.34375 39.984375 -45.902344 39.984375 -45.902344 L 35.433594 -45.902344 C 35.433594 -45.902344 36.808594 -45.300781 33.074219 -40.199219 L 21.964844 -24.839844 L 12.054688 -39.898438 C 8.664062 -45.003906 9.867188 -45.902344 9.867188 -45.902344 L 1.074219 -45.902344 C 1.074219 -45.902344 3.433594 -45.003906 6.820312 -39.898438 Z M 19.21875 -21.0625 "/></g></g></g></svg>