<svg xmlns="http://www.w3.org/2000/svg" xmlns:xlink="http://www.w3.org/1999/xlink" width="500" zoomAndPan="magnify" viewBox="0 0 375 374.999991" height="500" preserveAspectRatio="xMidYMid meet" version="1.0"><defs><clipPath id="d321d26ed8"><path d="M 70 76 L 305 76 L 305 312 L 70 312 Z M 70 76 " clip-rule="nonzero"/></clipPath><clipPath id="ebacfeea87"><path d="M 301.84375 314.488281 L 67.171875 308.453125 L 73.203125 73.78125 L 307.875 79.816406 Z M 301.84375 314.488281 " clip-rule="nonzero"/></clipPath><clipPath id="336ca1b511"><path d="M 301.84375 314.488281 L 67.171875 308.453125 L 73.203125 73.78125 L 307.875 79.816406 Z M 301.84375 314.488281 " clip-rule="nonzero"/></clipPath></defs><g clip-path="url(#d321d26ed8)"><g clip-path="url(#ebacfeea87)"><g clip-path="url(#336ca1b511)"><path fill="#edb8b8" d="M 190.300781 86.136719 C 248.261719 87.628906 294.535156 134.75 295.5 192.214844 L 275.550781 191.699219 C 275.042969 169.472656 266.332031 148.441406 250.691406 132.121094 C 234.269531 114.929688 212.445312 105.210938 189.074219 104.613281 C 188.742188 104.601562 188.414062 104.59375 188.132812 104.585938 C 139.496094 103.851562 99.085938 143.015625 98.058594 192.117188 C 98.421875 203.632812 101.984375 232.980469 126.648438 256.582031 C 147.546875 276.613281 171.757812 281.179688 184.507812 282.164062 L 247.632812 283.789062 C 229.664062 295.867188 207.980469 302.679688 184.746094 302.082031 C 125.234375 300.601562 78.042969 250.917969 79.574219 191.359375 C 81.105469 131.800781 130.785156 84.605469 190.300781 86.136719 Z M 236.972656 190.710938 L 215.617188 190.160156 C 202.9375 188.238281 192.585938 179.941406 188.605469 168.378906 C 184.890625 157.621094 188.191406 147.984375 190.574219 143.066406 C 215.835938 145.125 235.644531 165.597656 236.972656 190.710938 Z M 281.691406 246.949219 L 186.886719 244.464844 C 173.035156 244.34375 160.03125 238.609375 150.335938 228.496094 C 140.777344 218.527344 135.707031 205.578125 136.101562 192.058594 C 136.507812 178.121094 142.511719 165.644531 151.898438 156.726562 C 151.199219 160.183594 150.734375 163.695312 150.640625 167.308594 C 149.804688 199.789062 174.285156 226.8125 205.214844 227.605469 L 289.460938 229.773438 C 287.378906 235.777344 284.746094 241.535156 281.691406 246.949219 Z M 292.234375 220.542969 L 205.5 218.3125 C 179.730469 217.652344 159.371094 194.914062 160.074219 167.597656 C 160.25 160.746094 161.730469 154.207031 164.425781 148.078125 C 169.371094 145.621094 174.769531 144.023438 180.421875 143.324219 C 177.945312 150.117188 175.996094 160.257812 179.839844 171.441406 C 184.996094 186.414062 198.296875 197.136719 214.625 199.480469 C 214.8125 199.484375 215 199.539062 215.1875 199.542969 L 295.257812 201.601562 C 294.808594 208.070312 293.800781 214.386719 292.234375 220.542969 Z M 259.328125 274.742188 L 185.03125 272.832031 C 173.734375 271.976562 151.953125 267.894531 133.160156 249.847656 C 110.972656 228.613281 107.804688 202.183594 107.453125 192.074219 C 108.390625 148.328125 144.515625 113.28125 188.035156 113.929688 C 209.066406 114.234375 229.085938 123.015625 243.949219 138.570312 C 257.851562 153.109375 265.640625 171.71875 266.164062 191.460938 L 246.3125 190.949219 C 245.089844 159.871094 219.957031 134.570312 188.46875 133.527344 C 188.328125 133.523438 188.191406 133.472656 188.050781 133.46875 C 187.859375 133.464844 187.71875 133.507812 187.578125 133.503906 C 154.953125 132.945312 127.699219 158.96875 126.761719 191.773438 C 126.304688 207.824219 132.25 223.148438 143.59375 234.945312 C 155.027344 246.886719 170.445312 253.625 186.742188 253.808594 L 275.914062 256.148438 C 271.089844 262.972656 265.527344 269.21875 259.328125 274.742188 Z M 184.507812 311.46875 C 214.59375 312.242188 242.339844 301.59375 263.566406 283.445312 C 263.949219 283.171875 264.328125 282.902344 264.621094 282.53125 C 273.75 274.546875 281.648438 265.171875 287.972656 254.71875 C 288.265625 254.351562 288.511719 253.980469 288.710938 253.515625 C 293.667969 245.144531 297.609375 236.085938 300.347656 226.480469 C 300.347656 226.4375 300.398438 226.390625 300.398438 226.34375 C 303.082031 217.019531 304.601562 207.242188 304.859375 197.152344 C 306.523438 132.476562 255.261719 78.460938 190.539062 76.796875 C 125.816406 75.132812 71.847656 126.441406 70.1875 191.117188 C 68.523438 255.792969 119.832031 309.808594 184.507812 311.46875 " fill-opacity="1" fill-rule="nonzero"/></g></g></g></svg>