<svg xmlns="http://www.w3.org/2000/svg" xmlns:xlink="http://www.w3.org/1999/xlink" width="500" zoomAndPan="magnify" viewBox="0 0 375 374.999991" height="500" preserveAspectRatio="xMidYMid meet" version="1.0"><defs><clipPath id="b8e2ffacc7"><path d="M 12.773438 181 L 362.273438 181 L 362.273438 370.855469 L 12.773438 370.855469 Z M 12.773438 181 " clip-rule="nonzero"/></clipPath><clipPath id="02b8a48436"><path d="M 91 4.105469 L 284 4.105469 L 284 197 L 91 197 Z M 91 4.105469 " clip-rule="nonzero"/></clipPath></defs><g clip-path="url(#b8e2ffacc7)"><path fill="#231f20" d="M 305.695312 203.710938 L 276.003906 182.445312 L 265.855469 196.648438 L 295.546875 217.992188 C 326.371094 240.011719 344.710938 275.785156 344.710938 313.664062 L 344.710938 344.777344 C 344.710938 349.585938 340.804688 353.492188 335.992188 353.492188 L 39.054688 353.492188 C 34.246094 353.492188 30.335938 349.585938 30.335938 344.777344 L 30.335938 311.933594 C 30.335938 275.109375 47.925781 239.9375 77.394531 217.765625 L 107.691406 194.996094 L 97.164062 181.015625 L 66.871094 203.789062 C 33.042969 229.113281 12.820312 269.546875 12.820312 311.859375 L 12.820312 344.699219 C 12.820312 359.128906 24.546875 370.855469 39.054688 370.855469 L 335.992188 370.855469 C 350.425781 370.855469 362.226562 359.128906 362.226562 344.625 L 362.226562 313.511719 C 362.226562 270.074219 341.101562 229.039062 305.695312 203.710938 Z M 305.695312 203.710938 " fill-opacity="1" fill-rule="nonzero"/></g><g clip-path="url(#02b8a48436)"><path fill="#231f20" d="M 187.523438 196.195312 C 240.519531 196.195312 283.597656 153.132812 283.597656 100.152344 C 283.597656 47.167969 240.519531 4.105469 187.523438 4.105469 C 134.527344 4.105469 91.453125 47.167969 91.453125 100.152344 C 91.453125 153.132812 134.527344 196.195312 187.523438 196.195312 Z M 187.523438 21.539062 C 230.824219 21.539062 266.15625 56.863281 266.15625 100.152344 C 266.15625 143.4375 230.824219 178.761719 187.523438 178.761719 C 144.222656 178.761719 108.890625 143.515625 108.890625 100.152344 C 108.890625 56.785156 144.148438 21.539062 187.523438 21.539062 Z M 187.523438 21.539062 " fill-opacity="1" fill-rule="nonzero"/></g></svg>