<svg xmlns="http://www.w3.org/2000/svg" xmlns:xlink="http://www.w3.org/1999/xlink" width="500" zoomAndPan="magnify" viewBox="0 0 375 374.999991" height="500" preserveAspectRatio="xMidYMid meet" version="1.0"><defs><clipPath id="42c497f619"><path d="M 6.03125 6 L 369 6 L 369 369.453125 L 6.03125 369.453125 Z M 6.03125 6 " clip-rule="nonzero"/></clipPath></defs><g clip-path="url(#42c497f619)"><path fill="#231f20" d="M 361.492188 145.402344 C 361.546875 145.15625 361.582031 144.902344 361.601562 144.648438 L 368.726562 94.15625 C 368.808594 93.757812 368.863281 93.339844 368.863281 92.914062 C 368.863281 89.671875 366.230469 87.039062 362.988281 87.039062 L 316.769531 87.039062 C 316.757812 87.039062 316.75 87.039062 316.742188 87.039062 C 316.730469 87.039062 316.722656 87.039062 316.714844 87.039062 L 270.546875 87.039062 C 270.527344 87.039062 270.511719 87.039062 270.492188 87.039062 C 270.472656 87.039062 270.457031 87.039062 270.4375 87.039062 L 224.324219 87.039062 C 224.296875 87.039062 224.269531 87.039062 224.242188 87.039062 C 224.214844 87.039062 224.1875 87.039062 224.160156 87.039062 L 178.101562 87.039062 C 178.066406 87.039062 178.03125 87.03125 177.992188 87.03125 C 177.957031 87.03125 177.921875 87.039062 177.886719 87.039062 L 131.871094 87.039062 C 131.828125 87.039062 131.78125 87.03125 131.746094 87.03125 C 131.699219 87.03125 131.65625 87.039062 131.617188 87.039062 L 91.714844 87.039062 L 67.273438 22.695312 C 66.574219 20.835938 65.023438 19.546875 63.242188 19.074219 L 14.144531 6.519531 C 11.011719 5.71875 7.820312 7.617188 7.019531 10.757812 C 6.222656 13.898438 8.117188 17.09375 11.257812 17.882812 L 57.398438 29.683594 L 90.613281 117.113281 L 121.007812 197.125 C 121.082031 197.378906 121.179688 197.625 121.289062 197.871094 L 126.117188 210.578125 C 126.199219 210.84375 126.300781 211.097656 126.410156 211.351562 L 139.839844 246.710938 L 126.136719 259.835938 C 114.238281 271.230469 106.542969 282.105469 103.085938 291.363281 C 100.851562 297.347656 100.308594 302.828125 101.460938 307.566406 C 102.722656 312.804688 105.898438 316.972656 110.972656 319.769531 C 112.660156 320.695312 114.546875 321.464844 116.652344 322.054688 C 112.25 327.085938 109.574219 333.65625 109.574219 340.855469 C 109.574219 348.554688 112.632812 355.554688 117.605469 360.699219 L 117.941406 361.074219 C 123.113281 366.246094 130.257812 369.441406 138.144531 369.441406 C 146.03125 369.441406 153.179688 366.238281 158.34375 361.074219 L 158.34375 361.046875 C 163.507812 355.871094 166.714844 348.726562 166.714844 340.855469 C 166.714844 334.339844 164.515625 328.328125 160.824219 323.519531 L 282.917969 323.519531 C 279.457031 328.246094 277.40625 334.066406 277.40625 340.367188 C 277.40625 348.0625 280.464844 355.0625 285.4375 360.210938 L 285.773438 360.582031 C 290.949219 365.757812 298.089844 368.953125 305.976562 368.953125 C 313.863281 368.953125 321.015625 365.746094 326.179688 360.582031 L 326.179688 360.554688 C 331.34375 355.382812 334.546875 348.238281 334.546875 340.367188 C 334.546875 334.074219 332.496094 328.246094 329.039062 323.519531 L 339.929688 323.519531 C 343.167969 323.519531 345.800781 320.886719 345.800781 317.644531 C 345.800781 314.402344 343.167969 311.769531 339.929688 311.769531 C 339.929688 311.769531 128.339844 311.769531 128.339844 311.769531 C 123.1875 311.769531 119.285156 310.964844 116.625 309.492188 C 114.574219 308.359375 113.3125 306.761719 112.839844 304.808594 C 112.25 302.355469 112.648438 299.179688 114.046875 295.429688 C 116.90625 287.777344 123.640625 278.429688 134.257812 268.261719 L 149.289062 253.863281 L 178.183594 250.976562 C 178.449219 250.96875 178.710938 250.941406 178.972656 250.894531 L 224.441406 246.355469 C 224.707031 246.347656 224.960938 246.320312 225.214844 246.285156 L 270.691406 241.746094 C 270.953125 241.734375 271.207031 241.707031 271.453125 241.671875 L 316.941406 237.132812 C 317.195312 237.125 317.449219 237.097656 317.695312 237.058594 L 344.183594 234.417969 C 346.90625 234.253906 349.230469 232.183594 349.621094 229.378906 L 354.242188 196.664062 C 354.296875 196.417969 354.332031 196.164062 354.347656 195.902344 Z M 150.070312 352.777344 C 147.027344 355.816406 142.808594 357.703125 138.160156 357.703125 C 133.515625 357.703125 129.304688 355.816406 126.253906 352.777344 L 125.980469 352.523438 C 123.097656 349.5 121.328125 345.386719 121.328125 340.855469 C 121.328125 336.191406 123.203125 331.976562 126.253906 328.945312 C 129.292969 325.90625 133.515625 324.015625 138.160156 324.015625 C 142.808594 324.015625 147.019531 325.90625 150.070312 328.945312 L 150.339844 329.199219 C 153.226562 332.222656 154.996094 336.328125 154.996094 340.855469 C 154.996094 345.53125 153.109375 349.742188 150.070312 352.777344 Z M 317.882812 328.457031 L 318.15625 328.710938 C 321.042969 331.734375 322.8125 335.835938 322.8125 340.367188 C 322.8125 345.03125 320.933594 349.246094 317.882812 352.277344 C 314.84375 355.316406 310.625 357.207031 305.976562 357.207031 C 301.332031 357.207031 297.121094 355.316406 294.070312 352.277344 L 293.796875 352.023438 C 290.910156 349 289.140625 344.886719 289.140625 340.355469 C 289.140625 335.691406 291.019531 331.480469 294.070312 328.445312 C 297.109375 325.40625 301.332031 323.519531 305.976562 323.519531 C 310.625 323.527344 314.835938 325.414062 317.882812 328.457031 Z M 150.578125 242 L 137.617188 207.882812 L 137.617188 201.320312 L 172.132812 201.320312 L 172.132812 239.847656 Z M 264.621094 138.300781 L 230.105469 138.300781 L 230.105469 98.769531 L 264.621094 98.769531 C 264.621094 106.546875 264.621094 121.28125 264.621094 138.300781 Z M 276.363281 98.777344 L 310.867188 98.777344 L 310.867188 138.3125 L 276.355469 138.3125 L 276.355469 98.777344 Z M 230.113281 150.050781 L 264.628906 150.050781 C 264.628906 163.175781 264.628906 176.972656 264.628906 189.582031 L 230.113281 189.582031 Z M 218.378906 189.574219 L 183.875 189.574219 L 183.875 150.039062 L 218.378906 150.039062 Z M 218.378906 138.300781 L 183.875 138.300781 L 183.875 98.769531 L 218.378906 98.769531 Z M 172.132812 138.300781 L 137.617188 138.300781 L 137.617188 98.769531 L 172.132812 98.769531 Z M 172.132812 150.050781 L 172.132812 189.582031 L 137.617188 189.582031 L 137.617188 150.050781 Z M 125.882812 176.984375 L 115.644531 150.039062 L 125.882812 150.039062 Z M 183.867188 201.3125 L 218.371094 201.3125 L 218.371094 235.226562 L 183.867188 238.667969 Z M 230.113281 201.3125 L 264.628906 201.3125 C 264.628906 214.046875 264.628906 224.625 264.628906 230.605469 L 230.113281 234.054688 Z M 276.363281 201.3125 L 310.867188 201.3125 L 310.867188 225.996094 L 276.355469 229.445312 L 276.355469 201.3125 Z M 276.363281 189.574219 L 276.363281 150.039062 L 310.867188 150.039062 L 310.867188 189.574219 Z M 322.613281 150.050781 L 349.011719 150.050781 L 343.433594 189.582031 L 322.613281 189.582031 Z M 350.664062 138.300781 L 322.601562 138.300781 L 322.601562 98.769531 L 356.246094 98.769531 Z M 125.882812 98.777344 L 125.882812 138.3125 L 111.1875 138.3125 L 101.570312 113.003906 L 96.167969 98.785156 L 125.882812 98.785156 Z M 322.613281 224.824219 L 322.613281 201.3125 L 341.78125 201.3125 L 338.683594 223.214844 Z M 322.613281 224.824219 " fill-opacity="1" fill-rule="nonzero"/></g></svg>