<svg xmlns="http://www.w3.org/2000/svg" xmlns:xlink="http://www.w3.org/1999/xlink" width="500" zoomAndPan="magnify" viewBox="0 0 375 374.999991" height="500" preserveAspectRatio="xMidYMid meet" version="1.0"><defs><clipPath id="1a1d45cb0f"><path d="M 6.949219 40.160156 L 367.699219 40.160156 L 367.699219 360.410156 L 6.949219 360.410156 Z M 6.949219 40.160156 " clip-rule="nonzero"/></clipPath></defs><g clip-path="url(#1a1d45cb0f)"><path fill="#231f20" d="M 187.324219 360.328125 L 183.5 357.726562 C 183.066406 357.4375 139.128906 327.375 95.839844 285.816406 C 70.296875 261.246094 49.878906 237.539062 35.160156 215.28125 C 16.472656 186.804688 6.949219 160.425781 6.949219 137.011719 C 6.949219 83.675781 50.3125 40.242188 103.558594 40.242188 C 123.328125 40.242188 142.445312 46.3125 158.753906 57.875 C 170.585938 66.257812 180.253906 76.953125 187.324219 89.242188 C 194.394531 76.882812 204.0625 66.1875 215.894531 57.875 C 232.203125 46.3125 251.320312 40.242188 271.089844 40.242188 C 324.335938 40.242188 367.699219 83.675781 367.699219 137.011719 L 367.699219 137.085938 C 367.484375 160.355469 357.886719 186.515625 339.128906 214.917969 C 324.410156 237.179688 304.0625 260.882812 278.523438 285.527344 C 235.304688 327.230469 191.582031 357.4375 191.148438 357.726562 Z M 103.558594 53.753906 C 57.742188 53.753906 20.441406 91.121094 20.441406 137.011719 C 20.441406 157.753906 29.171875 181.53125 46.414062 207.691406 C 60.484375 229.085938 80.253906 252.066406 105.074219 275.917969 C 140.210938 309.667969 175.851562 335.757812 187.324219 343.851562 C 198.796875 335.683594 234.222656 309.449219 269.285156 275.628906 C 294.035156 251.707031 313.730469 228.796875 327.871094 207.402344 C 345.117188 181.242188 353.992188 157.609375 354.136719 137.011719 C 354.136719 91.121094 316.832031 53.828125 271.019531 53.828125 C 237.035156 53.828125 205.9375 75.363281 193.527344 107.453125 L 187.253906 123.785156 L 181.046875 107.453125 C 168.636719 75.363281 137.539062 53.753906 103.558594 53.753906 Z M 103.558594 53.753906 " fill-opacity="1" fill-rule="nonzero"/></g></svg>