<svg xmlns="http://www.w3.org/2000/svg" xmlns:xlink="http://www.w3.org/1999/xlink" width="500" zoomAndPan="magnify" viewBox="0 0 375 374.999991" height="500" preserveAspectRatio="xMidYMid meet" version="1.0"><defs><clipPath id="e7c07ef6ab"><path d="M 16.5625 8.300781 L 358.5625 8.300781 L 358.5625 350 L 16.5625 350 Z M 16.5625 8.300781 " clip-rule="nonzero"/></clipPath></defs><g clip-path="url(#e7c07ef6ab)"><path fill="#edb8b8" d="M 187.5625 8.957031 C 93.117188 8.957031 16.5625 85.515625 16.5625 179.957031 C 16.5625 265.695312 79.714844 336.476562 162.003906 348.839844 L 162.003906 225.273438 L 119.691406 225.273438 L 119.691406 180.328125 L 162.003906 180.328125 L 162.003906 150.414062 C 162.003906 100.890625 186.128906 79.160156 227.289062 79.160156 C 246.992188 79.160156 257.421875 80.621094 262.355469 81.292969 L 262.355469 120.53125 L 234.285156 120.53125 C 216.816406 120.53125 210.714844 137.089844 210.714844 155.769531 L 210.714844 180.339844 L 261.921875 180.339844 L 254.976562 225.285156 L 210.714844 225.285156 L 210.714844 349.222656 C 294.175781 337.882812 358.5625 266.523438 358.5625 179.957031 C 358.5625 85.515625 282.007812 8.957031 187.5625 8.957031 Z M 187.5625 8.957031 " fill-opacity="1" fill-rule="nonzero"/></g></svg>