<svg xmlns="http://www.w3.org/2000/svg" xmlns:xlink="http://www.w3.org/1999/xlink" width="500" zoomAndPan="magnify" viewBox="0 0 375 374.999991" height="500" preserveAspectRatio="xMidYMid meet" version="1.0"><defs><clipPath id="79c0691dbe"><path d="M 16.5625 8.300781 L 358.5625 8.300781 L 358.5625 350.300781 L 16.5625 350.300781 Z M 16.5625 8.300781 " clip-rule="nonzero"/></clipPath></defs><path fill="#edb8b8" d="M 187.5625 141.398438 C 166.6875 141.398438 149.664062 158.425781 149.664062 179.300781 C 149.664062 200.175781 166.6875 217.203125 187.5625 217.203125 C 208.4375 217.203125 225.464844 200.175781 225.464844 179.300781 C 225.464844 158.425781 208.4375 141.398438 187.5625 141.398438 Z M 187.5625 141.398438 " fill-opacity="1" fill-rule="nonzero"/><path fill="#edb8b8" d="M 238.492188 86.324219 L 136.632812 86.324219 C 113.539062 86.324219 94.585938 105.125 94.585938 128.371094 L 94.585938 230.230469 C 94.585938 253.328125 113.390625 272.277344 136.632812 272.277344 L 238.492188 272.277344 C 261.589844 272.277344 280.539062 253.476562 280.539062 230.230469 L 280.539062 128.371094 C 280.390625 105.125 261.589844 86.324219 238.492188 86.324219 Z M 187.5625 236.300781 C 156.027344 236.300781 130.414062 210.6875 130.414062 179.152344 C 130.414062 147.617188 156.027344 122.003906 187.5625 122.003906 C 219.097656 122.003906 244.710938 147.617188 244.710938 179.152344 C 244.5625 210.6875 218.949219 236.300781 187.5625 236.300781 Z M 248.710938 131.628906 C 241.160156 131.628906 234.941406 125.410156 234.941406 117.859375 C 234.941406 110.308594 241.160156 104.089844 248.710938 104.089844 C 256.257812 104.089844 262.476562 110.308594 262.476562 117.859375 C 262.476562 125.558594 256.40625 131.628906 248.710938 131.628906 Z M 248.710938 131.628906 " fill-opacity="1" fill-rule="nonzero"/><g clip-path="url(#79c0691dbe)"><path fill="#edb8b8" d="M 187.5625 8.300781 C 93.105469 8.300781 16.5625 84.84375 16.5625 179.300781 C 16.5625 273.757812 93.105469 350.300781 187.5625 350.300781 C 282.019531 350.300781 358.5625 273.757812 358.5625 179.300781 C 358.414062 84.84375 281.871094 8.300781 187.5625 8.300781 Z M 299.640625 230.230469 C 299.640625 263.988281 272.101562 291.523438 238.34375 291.523438 L 136.632812 291.523438 C 102.878906 291.523438 75.339844 263.988281 75.339844 230.230469 L 75.339844 128.371094 C 75.339844 94.613281 102.878906 67.078125 136.632812 67.078125 L 238.492188 67.078125 C 272.25 67.078125 299.785156 94.613281 299.785156 128.371094 L 299.785156 230.230469 Z M 299.640625 230.230469 " fill-opacity="1" fill-rule="nonzero"/></g></svg>