<svg xmlns="http://www.w3.org/2000/svg" xmlns:xlink="http://www.w3.org/1999/xlink" width="500" zoomAndPan="magnify" viewBox="0 0 375 374.999991" height="500" preserveAspectRatio="xMidYMid meet" version="1.0"><defs><clipPath id="ce3519912c"><path d="M 16.5625 8.300781 L 358.5625 8.300781 L 358.5625 350.300781 L 16.5625 350.300781 Z M 16.5625 8.300781 " clip-rule="nonzero"/></clipPath></defs><path fill="#edb8b8" d="M 195 75.214844 C 192.890625 75.210938 190.785156 75.277344 188.679688 75.414062 C 186.578125 75.550781 184.480469 75.753906 182.390625 76.027344 C 180.300781 76.300781 178.222656 76.640625 176.152344 77.050781 C 174.085938 77.457031 172.03125 77.933594 169.996094 78.476562 C 167.960938 79.023438 165.941406 79.632812 163.945312 80.308594 C 161.949219 80.980469 159.976562 81.722656 158.027344 82.527344 C 156.082031 83.332031 154.160156 84.199219 152.269531 85.128906 C 150.378906 86.0625 148.519531 87.050781 146.691406 88.105469 C 144.867188 89.15625 143.074219 90.269531 141.320312 91.4375 C 139.566406 92.609375 137.855469 93.832031 136.179688 95.113281 C 134.507812 96.398438 132.878906 97.730469 131.292969 99.121094 C 129.707031 100.507812 128.167969 101.949219 126.675781 103.4375 C 125.183594 104.925781 123.742188 106.464844 122.351562 108.046875 C 120.960938 109.632812 119.621094 111.257812 118.339844 112.929688 C 117.054688 114.601562 115.824219 116.3125 114.652344 118.066406 C 113.480469 119.816406 112.367188 121.605469 111.3125 123.429688 C 110.257812 125.253906 109.261719 127.113281 108.328125 129.003906 C 107.394531 130.894531 106.523438 132.8125 105.71875 134.757812 C 104.910156 136.707031 104.167969 138.675781 103.488281 140.671875 C 102.808594 142.667969 102.195312 144.683594 101.648438 146.71875 C 101.101562 148.757812 100.625 150.808594 100.210938 152.875 C 99.800781 154.941406 99.457031 157.019531 99.179688 159.109375 C 98.902344 161.199219 98.695312 163.296875 98.558594 165.398438 C 98.417969 167.503906 98.347656 169.609375 98.347656 171.71875 C 98.347656 173.824219 98.414062 175.929688 98.550781 178.035156 C 98.6875 180.136719 98.894531 182.234375 99.167969 184.324219 C 99.445312 186.414062 99.785156 188.492188 100.195312 190.5625 C 100.609375 192.628906 101.085938 194.679688 101.628906 196.71875 C 102.175781 198.753906 102.785156 200.769531 103.464844 202.765625 C 104.140625 204.761719 104.882812 206.734375 105.6875 208.679688 C 106.496094 210.628906 107.363281 212.546875 108.296875 214.4375 C 109.230469 216.328125 110.222656 218.1875 111.273438 220.015625 C 111.765625 220.867188 112.078125 221.777344 112.207031 222.753906 C 112.335938 223.730469 112.273438 224.691406 112.019531 225.640625 L 101.402344 265.460938 L 141.222656 254.84375 C 142.171875 254.59375 143.136719 254.53125 144.109375 254.660156 C 145.085938 254.789062 146 255.097656 146.851562 255.589844 C 148.449219 256.511719 150.074219 257.386719 151.722656 258.214844 C 153.371094 259.046875 155.042969 259.828125 156.738281 260.5625 C 158.433594 261.292969 160.144531 261.980469 161.878906 262.613281 C 163.613281 263.25 165.363281 263.835938 167.128906 264.371094 C 168.898438 264.90625 170.675781 265.390625 172.472656 265.820312 C 174.265625 266.253906 176.074219 266.636719 177.890625 266.964844 C 179.707031 267.296875 181.53125 267.574219 183.363281 267.796875 C 185.195312 268.023438 187.03125 268.195312 188.875 268.316406 C 190.714844 268.433594 192.558594 268.5 194.40625 268.515625 C 196.253906 268.53125 198.097656 268.492188 199.941406 268.398438 C 201.785156 268.308594 203.625 268.164062 205.460938 267.964844 C 207.296875 267.769531 209.125 267.519531 210.945312 267.21875 C 212.765625 266.914062 214.578125 266.5625 216.378906 266.15625 C 218.179688 265.75 219.96875 265.292969 221.742188 264.785156 C 223.515625 264.277344 225.277344 263.71875 227.019531 263.109375 C 228.761719 262.5 230.484375 261.84375 232.191406 261.136719 C 233.894531 260.429688 235.578125 259.671875 237.242188 258.867188 C 238.902344 258.0625 240.539062 257.214844 242.152344 256.316406 C 243.765625 255.417969 245.351562 254.472656 246.910156 253.484375 C 248.46875 252.496094 250 251.464844 251.5 250.386719 C 253 249.3125 254.464844 248.191406 255.902344 247.03125 C 257.335938 245.871094 258.738281 244.671875 260.105469 243.429688 C 261.472656 242.1875 262.804688 240.910156 264.097656 239.59375 C 265.390625 238.277344 266.644531 236.921875 267.859375 235.535156 C 269.078125 234.144531 270.253906 232.722656 271.386719 231.265625 C 272.523438 229.808594 273.613281 228.320312 274.664062 226.804688 C 275.710938 225.285156 276.71875 223.738281 277.679688 222.160156 C 278.636719 220.582031 279.554688 218.980469 280.421875 217.351562 C 281.289062 215.722656 282.113281 214.070312 282.886719 212.394531 C 283.660156 210.71875 284.386719 209.023438 285.0625 207.304688 C 285.738281 205.585938 286.367188 203.851562 286.945312 202.097656 C 287.523438 200.34375 288.046875 198.578125 288.523438 196.792969 C 289 195.007812 289.425781 193.214844 289.796875 191.40625 C 290.171875 189.597656 290.492188 187.78125 290.761719 185.953125 C 291.03125 184.128906 291.246094 182.292969 291.410156 180.457031 C 291.574219 178.617188 291.6875 176.773438 291.746094 174.929688 C 291.804688 173.085938 291.808594 171.238281 291.761719 169.394531 C 291.714844 167.546875 291.617188 165.707031 291.460938 163.867188 C 291.308594 162.027344 291.105469 160.191406 290.847656 158.363281 C 290.589844 156.535156 290.277344 154.71875 289.917969 152.90625 C 289.554688 151.097656 289.140625 149.296875 288.675781 147.511719 C 288.210938 145.726562 287.695312 143.953125 287.128906 142.195312 C 286.5625 140.441406 285.945312 138.699219 285.277344 136.980469 C 284.613281 135.257812 283.898438 133.554688 283.132812 131.875 C 282.371094 130.195312 281.558594 128.539062 280.699219 126.902344 C 279.839844 125.269531 278.933594 123.660156 277.984375 122.078125 C 277.035156 120.496094 276.039062 118.941406 275 117.417969 C 273.957031 115.890625 272.875 114.398438 271.75 112.933594 C 270.625 111.472656 269.457031 110.042969 268.25 108.644531 C 267.042969 107.25 265.796875 105.886719 264.511719 104.5625 C 263.226562 103.238281 261.902344 101.949219 260.542969 100.703125 C 259.183594 99.453125 257.789062 98.242188 256.363281 97.074219 C 254.933594 95.90625 253.472656 94.777344 251.980469 93.691406 C 250.484375 92.605469 248.960938 91.5625 247.410156 90.566406 C 245.855469 89.566406 244.277344 88.613281 242.667969 87.707031 C 241.0625 86.796875 239.429688 85.9375 237.773438 85.125 C 236.117188 84.308594 234.4375 83.542969 232.738281 82.824219 C 231.035156 82.105469 229.316406 81.4375 227.578125 80.820312 C 225.839844 80.199219 224.082031 79.628906 222.3125 79.109375 C 220.539062 78.59375 218.753906 78.125 216.957031 77.707031 C 215.15625 77.289062 213.347656 76.925781 211.527344 76.613281 C 209.710938 76.300781 207.882812 76.039062 206.046875 75.832031 C 204.214844 75.621094 202.375 75.46875 200.53125 75.363281 C 198.6875 75.261719 196.84375 75.210938 195 75.214844 Z M 264.886719 201.648438 C 264.882812 202.734375 264.832031 203.816406 264.722656 204.894531 C 264.617188 205.972656 264.457031 207.042969 264.246094 208.105469 C 264.035156 209.167969 263.773438 210.21875 263.457031 211.257812 C 263.144531 212.292969 262.777344 213.3125 262.363281 214.316406 C 261.949219 215.316406 261.488281 216.296875 260.976562 217.25 C 260.46875 218.207031 259.910156 219.136719 259.3125 220.039062 C 258.710938 220.941406 258.066406 221.8125 257.378906 222.648438 C 256.691406 223.488281 255.964844 224.292969 255.203125 225.058594 C 254.4375 225.828125 253.636719 226.554688 252.796875 227.242188 C 251.960938 227.933594 251.09375 228.578125 250.195312 229.183594 C 249.292969 229.789062 248.367188 230.347656 247.410156 230.859375 C 246.457031 231.375 245.480469 231.839844 244.480469 232.257812 C 243.480469 232.671875 242.460938 233.039062 241.425781 233.359375 C 240.386719 233.675781 239.339844 233.941406 238.277344 234.15625 C 237.214844 234.371094 236.144531 234.535156 235.066406 234.644531 C 233.988281 234.753906 232.90625 234.8125 231.824219 234.816406 C 230.753906 234.816406 229.703125 234.816406 228.640625 234.75 C 227.078125 234.691406 225.519531 234.59375 223.960938 234.460938 C 222.40625 234.328125 220.851562 234.160156 219.300781 233.953125 C 217.75 233.746094 216.207031 233.507812 214.667969 233.230469 C 213.132812 232.953125 211.601562 232.640625 210.078125 232.289062 C 208.554688 231.941406 207.039062 231.558594 205.53125 231.136719 C 204.027344 230.71875 202.53125 230.261719 201.046875 229.773438 C 199.5625 229.285156 198.089844 228.761719 196.628906 228.203125 C 195.171875 227.644531 193.726562 227.050781 192.292969 226.425781 C 190.859375 225.800781 189.441406 225.140625 188.042969 224.449219 C 186.640625 223.757812 185.253906 223.035156 183.886719 222.277344 C 182.519531 221.523438 181.167969 220.734375 179.839844 219.914062 C 178.507812 219.09375 177.195312 218.246094 175.90625 217.363281 C 174.613281 216.484375 173.34375 215.574219 172.09375 214.632812 C 170.847656 213.691406 169.621094 212.722656 168.417969 211.726562 C 167.210938 210.730469 166.03125 209.707031 164.878906 208.652344 C 163.722656 207.601562 162.589844 206.523438 161.484375 205.417969 C 160.378906 204.3125 159.300781 203.179688 158.25 202.027344 C 157.195312 200.871094 156.171875 199.691406 155.171875 198.488281 C 154.175781 197.285156 153.207031 196.058594 152.265625 194.808594 C 151.328125 193.5625 150.414062 192.289062 149.535156 191 C 148.652344 189.707031 147.804688 188.398438 146.984375 187.066406 C 146.164062 185.734375 145.375 184.386719 144.617188 183.019531 C 143.863281 181.652344 143.136719 180.265625 142.445312 178.867188 C 141.753906 177.464844 141.09375 176.046875 140.46875 174.613281 C 139.84375 173.183594 139.25 171.738281 138.691406 170.277344 C 138.132812 168.816406 137.609375 167.34375 137.121094 165.859375 C 136.628906 164.375 136.175781 162.882812 135.753906 161.375 C 135.335938 159.871094 134.949219 158.355469 134.601562 156.832031 C 134.25 155.308594 133.9375 153.777344 133.660156 152.238281 C 133.382812 150.699219 133.140625 149.15625 132.933594 147.609375 C 132.730469 146.058594 132.558594 144.503906 132.425781 142.945312 C 132.292969 141.390625 132.199219 139.832031 132.136719 138.269531 C 132.136719 137.28125 132.085938 136.289062 132.078125 135.292969 C 132.074219 134.207031 132.125 133.121094 132.230469 132.039062 C 132.332031 130.957031 132.488281 129.878906 132.699219 128.8125 C 132.90625 127.746094 133.167969 126.691406 133.480469 125.648438 C 133.792969 124.605469 134.15625 123.582031 134.570312 122.574219 C 134.984375 121.570312 135.445312 120.585938 135.957031 119.625 C 136.46875 118.664062 137.023438 117.730469 137.625 116.824219 C 138.226562 115.917969 138.871094 115.042969 139.558594 114.199219 C 140.246094 113.359375 140.972656 112.550781 141.742188 111.777344 C 142.507812 111.007812 143.3125 110.277344 144.148438 109.582031 C 144.988281 108.890625 145.859375 108.242188 146.761719 107.632812 C 147.664062 107.027344 148.59375 106.464844 149.554688 105.949219 C 150.511719 105.433594 151.492188 104.964844 152.496094 104.546875 C 153.5 104.128906 154.523438 103.757812 155.5625 103.4375 C 156.601562 103.121094 157.65625 102.851562 158.722656 102.636719 C 159.789062 102.421875 160.863281 102.257812 161.945312 102.148438 C 163.027344 102.039062 164.113281 101.984375 165.199219 101.980469 L 166.390625 101.980469 C 167.65625 101.972656 168.914062 102.089844 170.160156 102.332031 C 171.40625 102.574219 172.617188 102.933594 173.789062 103.414062 C 174.964844 103.894531 176.078125 104.488281 177.136719 105.1875 C 178.191406 105.890625 179.171875 106.691406 180.070312 107.585938 C 180.953125 108.460938 181.738281 109.414062 182.433594 110.449219 C 183.125 111.480469 183.710938 112.570312 184.1875 113.71875 C 184.664062 114.867188 185.023438 116.050781 185.265625 117.273438 C 185.507812 118.492188 185.625 119.722656 185.625 120.96875 L 185.625 149.964844 C 185.625 150.71875 185.511719 151.453125 185.285156 152.175781 C 185.0625 152.894531 184.738281 153.566406 184.308594 154.1875 C 183.878906 154.808594 183.367188 155.351562 182.777344 155.816406 C 182.183594 156.28125 181.53125 156.648438 180.828125 156.914062 L 176.648438 158.5 C 176.222656 158.660156 175.925781 158.953125 175.757812 159.375 C 175.628906 159.664062 175.628906 159.949219 175.757812 160.238281 C 177.296875 163.632812 179.125 166.863281 181.246094 169.925781 C 183.371094 172.992188 185.75 175.839844 188.382812 178.476562 C 191.019531 181.113281 193.871094 183.492188 196.9375 185.609375 C 200 187.730469 203.230469 189.5625 206.625 191.101562 C 206.914062 191.222656 207.203125 191.222656 207.488281 191.101562 C 207.910156 190.929688 208.203125 190.628906 208.359375 190.199219 L 209.941406 186.03125 C 210.210938 185.324219 210.574219 184.671875 211.042969 184.078125 C 211.507812 183.484375 212.050781 182.972656 212.671875 182.542969 C 213.292969 182.113281 213.960938 181.789062 214.683594 181.5625 C 215.402344 181.339844 216.140625 181.226562 216.894531 181.226562 L 245.890625 181.226562 C 246.511719 181.226562 247.132812 181.257812 247.753906 181.320312 C 248.375 181.382812 248.988281 181.472656 249.601562 181.59375 C 250.210938 181.71875 250.816406 181.867188 251.410156 182.050781 C 252.007812 182.230469 252.59375 182.441406 253.167969 182.679688 C 253.742188 182.921875 254.304688 183.1875 254.855469 183.480469 C 255.40625 183.777344 255.9375 184.097656 256.457031 184.441406 C 256.972656 184.789062 257.472656 185.160156 257.953125 185.558594 C 258.433594 185.953125 258.894531 186.371094 259.335938 186.8125 C 259.777344 187.253906 260.191406 187.714844 260.585938 188.199219 C 260.980469 188.679688 261.351562 189.179688 261.699219 189.699219 C 262.042969 190.21875 262.363281 190.753906 262.65625 191.300781 C 262.949219 191.851562 263.210938 192.414062 263.449219 192.992188 C 263.6875 193.566406 263.894531 194.152344 264.078125 194.75 C 264.257812 195.347656 264.40625 195.949219 264.527344 196.5625 C 264.648438 197.171875 264.738281 197.789062 264.796875 198.410156 C 264.855469 199.03125 264.886719 199.652344 264.886719 200.273438 Z M 264.886719 201.648438 " fill-opacity="1" fill-rule="nonzero"/><path fill="#edb8b8" d="M 245.84375 196.132812 L 221.992188 196.132812 C 221.144531 198.113281 219.953125 199.859375 218.421875 201.371094 C 216.890625 202.886719 215.128906 204.054688 213.140625 204.875 C 212.132812 205.300781 211.097656 205.617188 210.023438 205.828125 C 208.953125 206.035156 207.875 206.132812 206.78125 206.117188 C 205.691406 206.101562 204.613281 205.976562 203.550781 205.734375 C 202.484375 205.496094 201.457031 205.152344 200.464844 204.699219 C 196.253906 202.789062 192.25 200.519531 188.449219 197.890625 C 184.648438 195.257812 181.117188 192.308594 177.847656 189.042969 C 174.582031 185.773438 171.632812 182.238281 169.003906 178.4375 C 166.371094 174.636719 164.101562 170.632812 162.195312 166.421875 C 161.742188 165.429688 161.398438 164.402344 161.160156 163.339844 C 160.917969 162.273438 160.792969 161.195312 160.777344 160.105469 C 160.761719 159.015625 160.855469 157.933594 161.0625 156.863281 C 161.273438 155.792969 161.585938 154.753906 162.011719 153.746094 C 162.835938 151.757812 164.003906 150 165.515625 148.46875 C 167.03125 146.9375 168.773438 145.75 170.753906 144.898438 L 170.753906 120.988281 C 170.761719 119.867188 170.367188 118.90625 169.570312 118.113281 C 168.675781 117.25 167.609375 116.828125 166.367188 116.847656 L 165.257812 116.847656 C 164.046875 116.847656 162.847656 116.96875 161.65625 117.207031 C 160.46875 117.449219 159.316406 117.804688 158.199219 118.273438 C 157.082031 118.742188 156.019531 119.316406 155.019531 120 C 154.015625 120.679688 153.089844 121.453125 152.242188 122.320312 C 150.53125 124.023438 149.21875 125.988281 148.300781 128.21875 C 147.382812 130.449219 146.9375 132.769531 146.953125 135.183594 L 147.007812 137.742188 C 147.058594 139.070312 147.140625 140.398438 147.253906 141.722656 C 147.367188 143.050781 147.511719 144.371094 147.683594 145.691406 C 147.859375 147.007812 148.066406 148.324219 148.300781 149.632812 C 148.539062 150.941406 148.804688 152.246094 149.101562 153.542969 C 149.398438 154.839844 149.726562 156.128906 150.082031 157.410156 C 150.441406 158.691406 150.828125 159.964844 151.246094 161.226562 C 151.660156 162.492188 152.105469 163.746094 152.582031 164.988281 C 153.058594 166.230469 153.5625 167.460938 154.09375 168.679688 C 154.628906 169.898438 155.1875 171.105469 155.777344 172.300781 C 156.367188 173.492188 156.980469 174.671875 157.625 175.835938 C 158.269531 177 158.941406 178.148438 159.640625 179.28125 C 160.335938 180.414062 161.058594 181.53125 161.808594 182.628906 C 162.558594 183.726562 163.335938 184.808594 164.132812 185.871094 C 164.933594 186.9375 165.757812 187.980469 166.609375 189.003906 C 167.457031 190.027344 168.328125 191.03125 169.226562 192.015625 C 170.121094 193 171.039062 193.960938 171.980469 194.902344 C 172.921875 195.84375 173.882812 196.761719 174.867188 197.660156 C 175.851562 198.554688 176.855469 199.425781 177.878906 200.277344 C 178.902344 201.125 179.945312 201.949219 181.007812 202.75 C 182.074219 203.550781 183.152344 204.328125 184.253906 205.074219 C 185.351562 205.824219 186.46875 206.550781 187.601562 207.246094 C 188.734375 207.945312 189.882812 208.617188 191.046875 209.261719 C 192.210938 209.90625 193.386719 210.523438 194.582031 211.109375 C 195.773438 211.699219 196.980469 212.261719 198.199219 212.792969 C 199.417969 213.328125 200.648438 213.832031 201.890625 214.304688 C 203.136719 214.78125 204.386719 215.226562 205.652344 215.644531 C 206.914062 216.0625 208.1875 216.449219 209.46875 216.808594 C 210.75 217.164062 212.039062 217.492188 213.335938 217.789062 C 214.632812 218.085938 215.9375 218.351562 217.246094 218.589844 C 218.554688 218.828125 219.871094 219.03125 221.1875 219.207031 C 222.507812 219.382812 223.832031 219.527344 225.15625 219.640625 C 226.480469 219.753906 227.808594 219.835938 229.140625 219.886719 L 231.660156 219.945312 C 232.855469 219.964844 234.042969 219.859375 235.21875 219.636719 C 236.394531 219.414062 237.535156 219.074219 238.644531 218.621094 C 239.75 218.164062 240.800781 217.605469 241.792969 216.9375 C 242.789062 216.269531 243.703125 215.507812 244.542969 214.652344 C 245.40625 213.804688 246.179688 212.878906 246.855469 211.878906 C 247.535156 210.875 248.109375 209.816406 248.574219 208.699219 C 249.042969 207.582031 249.394531 206.433594 249.632812 205.246094 C 249.871094 204.058594 249.988281 202.859375 249.984375 201.648438 L 249.984375 200.273438 C 249.984375 200.003906 249.960938 199.734375 249.90625 199.464844 C 249.851562 199.199219 249.773438 198.941406 249.671875 198.691406 C 249.566406 198.4375 249.4375 198.199219 249.289062 197.972656 C 249.136719 197.746094 248.964844 197.539062 248.773438 197.347656 C 248.582031 197.152344 248.371094 196.980469 248.144531 196.832031 C 247.917969 196.679688 247.679688 196.550781 247.429688 196.449219 C 247.179688 196.34375 246.917969 196.265625 246.652344 196.210938 C 246.386719 196.160156 246.117188 196.132812 245.84375 196.132812 Z M 245.84375 196.132812 " fill-opacity="1" fill-rule="nonzero"/><g clip-path="url(#ce3519912c)"><path fill="#edb8b8" d="M 187.5625 8.300781 C 184.765625 8.300781 181.96875 8.371094 179.171875 8.507812 C 176.378906 8.644531 173.585938 8.851562 170.800781 9.125 C 168.015625 9.398438 165.242188 9.742188 162.472656 10.152344 C 159.703125 10.5625 156.949219 11.039062 154.203125 11.585938 C 151.457031 12.132812 148.730469 12.746094 146.015625 13.425781 C 143.300781 14.105469 140.601562 14.851562 137.925781 15.664062 C 135.246094 16.476562 132.589844 17.355469 129.957031 18.296875 C 127.320312 19.238281 124.710938 20.246094 122.125 21.316406 C 119.539062 22.386719 116.980469 23.523438 114.453125 24.71875 C 111.921875 25.914062 109.421875 27.171875 106.953125 28.492188 C 104.488281 29.8125 102.050781 31.191406 99.652344 32.628906 C 97.25 34.066406 94.886719 35.566406 92.5625 37.121094 C 90.234375 38.675781 87.945312 40.285156 85.699219 41.953125 C 83.449219 43.621094 81.246094 45.339844 79.082031 47.117188 C 76.917969 48.890625 74.800781 50.71875 72.726562 52.597656 C 70.652344 54.476562 68.628906 56.40625 66.648438 58.386719 C 64.667969 60.363281 62.742188 62.390625 60.859375 64.464844 C 58.980469 66.539062 57.152344 68.65625 55.378906 70.820312 C 53.601562 72.984375 51.882812 75.1875 50.214844 77.4375 C 48.546875 79.683594 46.9375 81.972656 45.382812 84.296875 C 43.828125 86.625 42.332031 88.988281 40.890625 91.390625 C 39.453125 93.789062 38.074219 96.222656 36.753906 98.691406 C 35.4375 101.160156 34.179688 103.660156 32.980469 106.1875 C 31.785156 108.71875 30.652344 111.277344 29.582031 113.863281 C 28.507812 116.449219 27.503906 119.058594 26.558594 121.691406 C 25.617188 124.328125 24.738281 126.984375 23.925781 129.664062 C 23.113281 132.339844 22.367188 135.035156 21.6875 137.75 C 21.007812 140.464844 20.394531 143.195312 19.847656 145.941406 C 19.304688 148.683594 18.824219 151.441406 18.414062 154.210938 C 18.003906 156.976562 17.660156 159.753906 17.386719 162.539062 C 17.113281 165.324219 16.90625 168.113281 16.769531 170.910156 C 16.632812 173.707031 16.5625 176.503906 16.5625 179.300781 C 16.5625 182.097656 16.632812 184.894531 16.769531 187.691406 C 16.90625 190.488281 17.113281 193.277344 17.386719 196.0625 C 17.660156 198.847656 18.003906 201.625 18.414062 204.390625 C 18.824219 207.160156 19.304688 209.917969 19.847656 212.660156 C 20.394531 215.40625 21.007812 218.136719 21.6875 220.851562 C 22.367188 223.566406 23.113281 226.261719 23.925781 228.941406 C 24.738281 231.617188 25.617188 234.273438 26.558594 236.910156 C 27.503906 239.542969 28.507812 242.152344 29.582031 244.738281 C 30.652344 247.324219 31.785156 249.882812 32.980469 252.414062 C 34.179688 254.941406 35.4375 257.441406 36.753906 259.910156 C 38.074219 262.378906 39.453125 264.8125 40.890625 267.210938 C 42.332031 269.613281 43.828125 271.976562 45.382812 274.304688 C 46.9375 276.628906 48.546875 278.917969 50.214844 281.164062 C 51.882812 283.414062 53.601562 285.617188 55.378906 287.78125 C 57.152344 289.945312 58.980469 292.0625 60.859375 294.136719 C 62.742188 296.210938 64.667969 298.238281 66.648438 300.214844 C 68.628906 302.195312 70.652344 304.125 72.726562 306.003906 C 74.800781 307.882812 76.917969 309.710938 79.082031 311.484375 C 81.246094 313.261719 83.449219 314.980469 85.699219 316.648438 C 87.945312 318.316406 90.234375 319.925781 92.5625 321.480469 C 94.886719 323.035156 97.25 324.535156 99.652344 325.972656 C 102.050781 327.410156 104.488281 328.789062 106.953125 330.109375 C 109.421875 331.429688 111.921875 332.6875 114.453125 333.882812 C 116.980469 335.078125 119.539062 336.214844 122.125 337.285156 C 124.710938 338.355469 127.320312 339.363281 129.957031 340.304688 C 132.589844 341.246094 135.246094 342.125 137.925781 342.9375 C 140.601562 343.75 143.300781 344.496094 146.015625 345.175781 C 148.730469 345.855469 151.457031 346.46875 154.203125 347.015625 C 156.949219 347.5625 159.703125 348.039062 162.472656 348.449219 C 165.242188 348.859375 168.015625 349.203125 170.800781 349.476562 C 173.585938 349.75 176.378906 349.957031 179.171875 350.09375 C 181.96875 350.230469 184.765625 350.300781 187.5625 350.300781 C 190.363281 350.300781 193.160156 350.230469 195.953125 350.09375 C 198.75 349.957031 201.539062 349.75 204.324219 349.476562 C 207.109375 349.203125 209.886719 348.859375 212.65625 348.449219 C 215.421875 348.039062 218.179688 347.5625 220.925781 347.015625 C 223.667969 346.46875 226.398438 345.855469 229.113281 345.175781 C 231.828125 344.496094 234.523438 343.75 237.203125 342.9375 C 239.878906 342.125 242.535156 341.246094 245.171875 340.304688 C 247.804688 339.363281 250.417969 338.355469 253.003906 337.285156 C 255.585938 336.214844 258.144531 335.078125 260.675781 333.882812 C 263.207031 332.6875 265.703125 331.429688 268.171875 330.109375 C 270.640625 328.789062 273.074219 327.410156 275.476562 325.972656 C 277.875 324.535156 280.238281 323.035156 282.566406 321.480469 C 284.894531 319.925781 287.179688 318.316406 289.429688 316.648438 C 291.675781 314.980469 293.882812 313.261719 296.042969 311.484375 C 298.207031 309.710938 300.328125 307.882812 302.398438 306.003906 C 304.472656 304.125 306.5 302.195312 308.480469 300.214844 C 310.457031 298.238281 312.386719 296.210938 314.265625 294.136719 C 316.144531 292.0625 317.972656 289.945312 319.75 287.78125 C 321.523438 285.617188 323.246094 283.414062 324.910156 281.164062 C 326.578125 278.917969 328.191406 276.628906 329.746094 274.304688 C 331.300781 271.976562 332.796875 269.613281 334.234375 267.210938 C 335.671875 264.8125 337.054688 262.378906 338.371094 259.910156 C 339.691406 257.441406 340.949219 254.941406 342.144531 252.414062 C 343.34375 249.882812 344.476562 247.324219 345.546875 244.738281 C 346.617188 242.152344 347.625 239.542969 348.566406 236.910156 C 349.511719 234.273438 350.386719 231.617188 351.199219 228.941406 C 352.011719 226.261719 352.757812 223.566406 353.4375 220.851562 C 354.117188 218.136719 354.730469 215.40625 355.277344 212.660156 C 355.824219 209.917969 356.300781 207.160156 356.710938 204.390625 C 357.125 201.625 357.464844 198.847656 357.738281 196.0625 C 358.015625 193.277344 358.21875 190.488281 358.359375 187.691406 C 358.496094 184.894531 358.5625 182.097656 358.5625 179.300781 C 358.558594 176.503906 358.488281 173.707031 358.347656 170.914062 C 358.207031 168.117188 358 165.328125 357.722656 162.546875 C 357.445312 159.761719 357.101562 156.988281 356.6875 154.21875 C 356.273438 151.453125 355.792969 148.695312 355.246094 145.953125 C 354.699219 143.210938 354.082031 140.480469 353.402344 137.769531 C 352.71875 135.054688 351.972656 132.359375 351.15625 129.683594 C 350.34375 127.007812 349.464844 124.351562 348.519531 121.71875 C 347.574219 119.085938 346.566406 116.476562 345.496094 113.890625 C 344.421875 111.308594 343.289062 108.75 342.089844 106.222656 C 340.894531 103.695312 339.636719 101.195312 338.316406 98.730469 C 336.996094 96.261719 335.617188 93.832031 334.175781 91.429688 C 332.738281 89.03125 331.242188 86.667969 329.683594 84.34375 C 328.128906 82.019531 326.519531 79.730469 324.851562 77.484375 C 323.183594 75.238281 321.464844 73.035156 319.6875 70.871094 C 317.914062 68.710938 316.085938 66.589844 314.207031 64.519531 C 312.328125 62.445312 310.402344 60.421875 308.421875 58.441406 C 306.445312 56.464844 304.417969 54.535156 302.34375 52.65625 C 300.273438 50.777344 298.15625 48.949219 295.992188 47.175781 C 293.832031 45.398438 291.625 43.679688 289.378906 42.011719 C 287.132812 40.34375 284.847656 38.734375 282.519531 37.179688 C 280.195312 35.625 277.832031 34.125 275.433594 32.6875 C 273.035156 31.25 270.601562 29.867188 268.132812 28.550781 C 265.667969 27.230469 263.167969 25.972656 260.640625 24.773438 C 258.113281 23.574219 255.554688 22.441406 252.972656 21.367188 C 250.386719 20.296875 247.78125 19.289062 245.144531 18.34375 C 242.511719 17.402344 239.855469 16.519531 237.179688 15.707031 C 234.503906 14.894531 231.808594 14.144531 229.097656 13.464844 C 226.382812 12.78125 223.652344 12.167969 220.910156 11.617188 C 218.167969 11.070312 215.410156 10.589844 212.644531 10.175781 C 209.878906 9.765625 207.101562 9.417969 204.320312 9.140625 C 201.535156 8.863281 198.746094 8.65625 195.953125 8.515625 C 193.15625 8.375 190.359375 8.304688 187.5625 8.300781 Z M 195 283.386719 C 185.773438 283.382812 176.6875 282.246094 167.742188 279.980469 C 158.800781 277.714844 150.269531 274.390625 142.152344 270.003906 L 92.828125 283.15625 C 92.515625 283.242188 92.199219 283.304688 91.875 283.347656 C 91.554688 283.386719 91.230469 283.410156 90.90625 283.410156 C 90.582031 283.410156 90.257812 283.386719 89.9375 283.34375 C 89.617188 283.300781 89.296875 283.238281 88.984375 283.152344 C 88.671875 283.070312 88.363281 282.964844 88.066406 282.839844 C 87.765625 282.71875 87.476562 282.574219 87.195312 282.410156 C 86.914062 282.25 86.644531 282.070312 86.386719 281.871094 C 86.128906 281.675781 85.886719 281.460938 85.65625 281.230469 C 85.425781 281 85.210938 280.757812 85.015625 280.5 C 84.816406 280.242188 84.636719 279.972656 84.476562 279.691406 C 84.3125 279.410156 84.167969 279.121094 84.046875 278.820312 C 83.921875 278.523438 83.816406 278.214844 83.734375 277.902344 C 83.648438 277.589844 83.585938 277.269531 83.542969 276.949219 C 83.5 276.628906 83.476562 276.304688 83.476562 275.980469 C 83.476562 275.65625 83.5 275.332031 83.539062 275.011719 C 83.582031 274.6875 83.644531 274.371094 83.730469 274.058594 L 96.859375 224.710938 C 95.90625 222.9375 95 221.136719 94.140625 219.3125 C 93.285156 217.488281 92.476562 215.644531 91.722656 213.773438 C 90.964844 211.90625 90.257812 210.019531 89.605469 208.113281 C 88.949219 206.207031 88.347656 204.285156 87.796875 202.347656 C 87.246094 200.40625 86.75 198.453125 86.304688 196.488281 C 85.863281 194.523438 85.472656 192.546875 85.132812 190.558594 C 84.796875 188.570312 84.515625 186.578125 84.285156 184.574219 C 84.054688 182.570312 83.882812 180.566406 83.761719 178.554688 C 83.640625 176.539062 83.578125 174.527344 83.566406 172.511719 C 83.554688 170.496094 83.597656 168.480469 83.699219 166.46875 C 83.796875 164.457031 83.949219 162.445312 84.15625 160.441406 C 84.363281 158.4375 84.625 156.441406 84.941406 154.449219 C 85.257812 152.457031 85.625 150.476562 86.050781 148.507812 C 86.472656 146.535156 86.949219 144.578125 87.480469 142.632812 C 88.007812 140.691406 88.589844 138.761719 89.226562 136.847656 C 89.859375 134.933594 90.542969 133.039062 91.28125 131.164062 C 92.019531 129.289062 92.804688 127.433594 93.644531 125.601562 C 94.480469 123.765625 95.367188 121.957031 96.300781 120.171875 C 97.238281 118.386719 98.222656 116.628906 99.253906 114.898438 C 100.285156 113.164062 101.359375 111.460938 102.484375 109.789062 C 103.605469 108.117188 104.773438 106.472656 105.988281 104.863281 C 107.199219 103.253906 108.457031 101.675781 109.753906 100.136719 C 111.050781 98.59375 112.390625 97.089844 113.769531 95.617188 C 115.148438 94.148438 116.566406 92.71875 118.023438 91.324219 C 119.480469 89.933594 120.976562 88.582031 122.507812 87.269531 C 124.035156 85.957031 125.601562 84.691406 127.199219 83.464844 C 128.800781 82.238281 130.433594 81.054688 132.09375 79.917969 C 133.757812 78.777344 135.453125 77.6875 137.175781 76.640625 C 138.898438 75.59375 140.648438 74.59375 142.425781 73.644531 C 144.199219 72.691406 146.003906 71.789062 147.828125 70.9375 C 149.652344 70.082031 151.5 69.28125 153.371094 68.527344 C 155.242188 67.773438 157.128906 67.070312 159.035156 66.421875 C 160.945312 65.769531 162.867188 65.171875 164.808594 64.625 C 166.746094 64.078125 168.703125 63.585938 170.667969 63.144531 C 172.636719 62.703125 174.613281 62.316406 176.601562 61.984375 C 178.585938 61.648438 180.582031 61.371094 182.585938 61.144531 C 184.589844 60.921875 186.597656 60.75 188.609375 60.632812 C 190.621094 60.519531 192.632812 60.457031 194.648438 60.449219 C 196.664062 60.441406 198.679688 60.488281 200.691406 60.59375 C 202.707031 60.695312 204.714844 60.851562 206.71875 61.0625 C 208.722656 61.273438 210.71875 61.539062 212.710938 61.859375 C 214.699219 62.179688 216.679688 62.550781 218.648438 62.980469 C 220.621094 63.40625 222.574219 63.886719 224.519531 64.417969 C 226.464844 64.953125 228.390625 65.539062 230.304688 66.175781 C 232.214844 66.8125 234.109375 67.503906 235.984375 68.242188 C 237.859375 68.984375 239.710938 69.773438 241.542969 70.613281 C 243.375 71.457031 245.183594 72.34375 246.964844 73.285156 C 248.75 74.222656 250.503906 75.210938 252.234375 76.246094 C 253.964844 77.277344 255.664062 78.359375 257.335938 79.484375 C 259.007812 80.613281 260.648438 81.78125 262.253906 83 C 263.863281 84.214844 265.4375 85.472656 266.976562 86.773438 C 268.515625 88.074219 270.019531 89.414062 271.484375 90.796875 C 272.953125 92.179688 274.382812 93.601562 275.769531 95.0625 C 277.160156 96.519531 278.507812 98.015625 279.816406 99.550781 C 281.125 101.082031 282.390625 102.648438 283.617188 104.25 C 284.839844 105.855469 286.019531 107.488281 287.152344 109.152344 C 288.289062 110.820312 289.378906 112.511719 290.421875 114.238281 C 291.464844 115.964844 292.457031 117.714844 293.40625 119.492188 C 294.355469 121.273438 295.253906 123.074219 296.101562 124.902344 C 296.953125 126.730469 297.753906 128.578125 298.503906 130.449219 C 299.253906 132.320312 299.953125 134.210938 300.597656 136.121094 C 301.246094 138.027344 301.839844 139.953125 302.382812 141.894531 C 302.925781 143.835938 303.417969 145.789062 303.851562 147.757812 C 304.289062 149.726562 304.671875 151.703125 305.003906 153.691406 C 305.332031 155.679688 305.609375 157.675781 305.828125 159.679688 C 306.050781 161.683594 306.21875 163.691406 306.328125 165.703125 C 306.441406 167.714844 306.5 169.726562 306.503906 171.742188 C 306.507812 173.757812 306.453125 175.773438 306.347656 177.785156 C 306.242188 179.800781 306.082031 181.808594 305.867188 183.8125 C 305.652344 185.816406 305.382812 187.8125 305.058594 189.800781 C 304.734375 191.789062 304.359375 193.769531 303.929688 195.738281 C 303.496094 197.707031 303.015625 199.664062 302.476562 201.605469 C 301.941406 203.550781 301.351562 205.476562 300.710938 207.386719 C 300.070312 209.296875 299.375 211.1875 298.632812 213.0625 C 297.886719 214.9375 297.09375 216.789062 296.25 218.617188 C 295.40625 220.449219 294.511719 222.253906 293.570312 224.035156 C 292.628906 225.816406 291.636719 227.570312 290.601562 229.300781 C 289.5625 231.027344 288.480469 232.726562 287.347656 234.394531 C 286.21875 236.0625 285.046875 237.703125 283.828125 239.308594 C 282.609375 240.914062 281.347656 242.484375 280.042969 244.019531 C 278.738281 245.558594 277.394531 247.058594 276.011719 248.523438 C 274.625 249.988281 273.203125 251.414062 271.738281 252.800781 C 270.277344 254.1875 268.777344 255.53125 267.242188 256.839844 C 265.707031 258.144531 264.136719 259.40625 262.53125 260.628906 C 260.929688 261.847656 259.292969 263.023438 257.625 264.15625 C 255.957031 265.289062 254.261719 266.371094 252.535156 267.414062 C 250.808594 268.453125 249.054688 269.445312 247.273438 270.390625 C 245.492188 271.332031 243.6875 272.230469 241.859375 273.074219 C 240.03125 273.921875 238.179688 274.71875 236.308594 275.464844 C 234.433594 276.210938 232.542969 276.90625 230.632812 277.550781 C 228.722656 278.195312 226.796875 278.785156 224.855469 279.324219 C 222.914062 279.863281 220.957031 280.351562 218.988281 280.78125 C 217.023438 281.214844 215.042969 281.597656 213.054688 281.921875 C 211.066406 282.246094 209.070312 282.519531 207.066406 282.738281 C 205.0625 282.953125 203.054688 283.117188 201.039062 283.226562 C 199.027344 283.335938 197.015625 283.386719 195 283.386719 Z M 195 283.386719 " fill-opacity="1" fill-rule="nonzero"/></g></svg>