<svg xmlns="http://www.w3.org/2000/svg" xmlns:xlink="http://www.w3.org/1999/xlink" width="500" zoomAndPan="magnify" viewBox="0 0 375 374.999991" height="500" preserveAspectRatio="xMidYMid meet" version="1.0"><defs><clipPath id="add7510658"><path d="M 22.4375 37.5 L 352.4375 37.5 L 352.4375 98 L 22.4375 98 Z M 22.4375 37.5 " clip-rule="nonzero"/></clipPath><clipPath id="452ed42cea"><path d="M 22.4375 157 L 352.4375 157 L 352.4375 218 L 22.4375 218 Z M 22.4375 157 " clip-rule="nonzero"/></clipPath><clipPath id="b813193da3"><path d="M 22.4375 277 L 352.4375 277 L 352.4375 337.5 L 22.4375 337.5 Z M 22.4375 277 " clip-rule="nonzero"/></clipPath></defs><g clip-path="url(#add7510658)"><path fill="#231f20" d="M 52.484375 97.5 L 322.390625 97.5 C 323.371094 97.5 324.351562 97.453125 325.328125 97.355469 C 326.308594 97.257812 327.277344 97.113281 328.242188 96.921875 C 329.203125 96.730469 330.15625 96.492188 331.09375 96.207031 C 332.035156 95.921875 332.960938 95.59375 333.867188 95.214844 C 334.773438 94.839844 335.660156 94.421875 336.527344 93.957031 C 337.394531 93.496094 338.234375 92.988281 339.050781 92.445312 C 339.867188 91.898438 340.65625 91.3125 341.414062 90.691406 C 342.175781 90.066406 342.902344 89.40625 343.597656 88.714844 C 344.289062 88.019531 344.949219 87.292969 345.570312 86.53125 C 346.195312 85.773438 346.78125 84.984375 347.324219 84.167969 C 347.871094 83.351562 348.375 82.507812 348.839844 81.640625 C 349.300781 80.773438 349.722656 79.886719 350.097656 78.980469 C 350.472656 78.074219 350.804688 77.148438 351.089844 76.207031 C 351.375 75.269531 351.613281 74.316406 351.804688 73.351562 C 351.996094 72.390625 352.140625 71.417969 352.234375 70.441406 C 352.332031 69.460938 352.378906 68.484375 352.378906 67.5 C 352.378906 66.515625 352.332031 65.539062 352.234375 64.558594 C 352.140625 63.582031 351.996094 62.609375 351.804688 61.648438 C 351.613281 60.683594 351.375 59.730469 351.089844 58.792969 C 350.804688 57.851562 350.472656 56.925781 350.097656 56.019531 C 349.722656 55.113281 349.300781 54.222656 348.839844 53.359375 C 348.375 52.492188 347.871094 51.648438 347.324219 50.832031 C 346.78125 50.015625 346.195312 49.226562 345.570312 48.46875 C 344.949219 47.707031 344.289062 46.980469 343.597656 46.285156 C 342.902344 45.59375 342.175781 44.933594 341.414062 44.308594 C 340.65625 43.6875 339.867188 43.101562 339.050781 42.554688 C 338.234375 42.011719 337.394531 41.503906 336.527344 41.042969 C 335.660156 40.578125 334.773438 40.160156 333.867188 39.785156 C 332.960938 39.40625 332.035156 39.078125 331.09375 38.792969 C 330.15625 38.507812 329.203125 38.269531 328.242188 38.078125 C 327.277344 37.882812 326.308594 37.742188 325.328125 37.644531 C 324.351562 37.546875 323.371094 37.5 322.390625 37.5 L 52.484375 37.5 C 51.503906 37.5 50.523438 37.546875 49.546875 37.644531 C 48.570312 37.742188 47.597656 37.882812 46.636719 38.078125 C 45.671875 38.269531 44.71875 38.507812 43.78125 38.792969 C 42.839844 39.078125 41.917969 39.40625 41.007812 39.785156 C 40.101562 40.160156 39.214844 40.578125 38.347656 41.042969 C 37.484375 41.503906 36.640625 42.011719 35.824219 42.554688 C 35.007812 43.101562 34.21875 43.6875 33.460938 44.308594 C 32.703125 44.933594 31.976562 45.59375 31.28125 46.285156 C 30.585938 46.980469 29.925781 47.707031 29.304688 48.46875 C 28.679688 49.226562 28.097656 50.015625 27.550781 50.832031 C 27.003906 51.648438 26.5 52.492188 26.039062 53.359375 C 25.574219 54.222656 25.15625 55.113281 24.78125 56.019531 C 24.402344 56.925781 24.074219 57.851562 23.789062 58.792969 C 23.503906 59.730469 23.265625 60.683594 23.074219 61.648438 C 22.882812 62.609375 22.738281 63.582031 22.640625 64.558594 C 22.542969 65.539062 22.496094 66.515625 22.496094 67.5 C 22.496094 68.484375 22.542969 69.460938 22.640625 70.441406 C 22.738281 71.417969 22.882812 72.390625 23.074219 73.351562 C 23.265625 74.316406 23.503906 75.269531 23.789062 76.207031 C 24.074219 77.148438 24.402344 78.074219 24.78125 78.980469 C 25.15625 79.886719 25.574219 80.773438 26.039062 81.640625 C 26.5 82.507812 27.003906 83.351562 27.550781 84.167969 C 28.097656 84.984375 28.679688 85.773438 29.304688 86.53125 C 29.925781 87.292969 30.585938 88.019531 31.28125 88.714844 C 31.976562 89.40625 32.703125 90.066406 33.460938 90.691406 C 34.21875 91.3125 35.007812 91.898438 35.824219 92.445312 C 36.640625 92.988281 37.484375 93.496094 38.347656 93.957031 C 39.214844 94.421875 40.101562 94.839844 41.007812 95.214844 C 41.917969 95.59375 42.839844 95.921875 43.78125 96.207031 C 44.71875 96.492188 45.671875 96.730469 46.636719 96.921875 C 47.597656 97.113281 48.570312 97.257812 49.546875 97.355469 C 50.523438 97.453125 51.503906 97.5 52.484375 97.5 Z M 52.484375 97.5 " fill-opacity="1" fill-rule="nonzero"/></g><g clip-path="url(#452ed42cea)"><path fill="#231f20" d="M 322.390625 157.5 L 52.484375 157.5 C 51.503906 157.5 50.523438 157.546875 49.546875 157.644531 C 48.570312 157.742188 47.597656 157.886719 46.636719 158.078125 C 45.671875 158.269531 44.71875 158.507812 43.78125 158.792969 C 42.839844 159.078125 41.917969 159.40625 41.007812 159.785156 C 40.101562 160.160156 39.214844 160.578125 38.347656 161.042969 C 37.484375 161.503906 36.640625 162.011719 35.824219 162.554688 C 35.007812 163.101562 34.21875 163.6875 33.460938 164.308594 C 32.703125 164.933594 31.976562 165.59375 31.28125 166.285156 C 30.585938 166.980469 29.925781 167.707031 29.304688 168.46875 C 28.679688 169.226562 28.097656 170.015625 27.550781 170.832031 C 27.003906 171.648438 26.5 172.492188 26.039062 173.359375 C 25.574219 174.222656 25.15625 175.113281 24.78125 176.019531 C 24.402344 176.925781 24.074219 177.851562 23.789062 178.792969 C 23.503906 179.730469 23.265625 180.683594 23.074219 181.648438 C 22.882812 182.609375 22.738281 183.582031 22.640625 184.558594 C 22.542969 185.539062 22.496094 186.515625 22.496094 187.5 C 22.496094 188.484375 22.542969 189.460938 22.640625 190.441406 C 22.738281 191.417969 22.882812 192.390625 23.074219 193.351562 C 23.265625 194.316406 23.503906 195.269531 23.789062 196.207031 C 24.074219 197.148438 24.402344 198.074219 24.78125 198.980469 C 25.15625 199.886719 25.574219 200.773438 26.039062 201.640625 C 26.5 202.507812 27.003906 203.351562 27.550781 204.167969 C 28.097656 204.984375 28.679688 205.773438 29.304688 206.53125 C 29.925781 207.292969 30.585938 208.019531 31.28125 208.714844 C 31.976562 209.40625 32.703125 210.066406 33.460938 210.691406 C 34.21875 211.3125 35.007812 211.898438 35.824219 212.445312 C 36.640625 212.988281 37.484375 213.496094 38.347656 213.957031 C 39.214844 214.421875 40.101562 214.839844 41.007812 215.214844 C 41.917969 215.59375 42.839844 215.921875 43.78125 216.207031 C 44.71875 216.492188 45.671875 216.730469 46.636719 216.921875 C 47.597656 217.117188 48.570312 217.257812 49.546875 217.355469 C 50.523438 217.453125 51.503906 217.5 52.484375 217.5 L 322.390625 217.5 C 323.371094 217.5 324.351562 217.453125 325.328125 217.355469 C 326.308594 217.257812 327.277344 217.117188 328.242188 216.921875 C 329.203125 216.730469 330.15625 216.492188 331.09375 216.207031 C 332.035156 215.921875 332.960938 215.59375 333.867188 215.214844 C 334.773438 214.839844 335.660156 214.421875 336.527344 213.957031 C 337.394531 213.496094 338.234375 212.988281 339.050781 212.445312 C 339.867188 211.898438 340.65625 211.3125 341.414062 210.691406 C 342.175781 210.066406 342.902344 209.40625 343.597656 208.714844 C 344.289062 208.019531 344.949219 207.292969 345.570312 206.53125 C 346.195312 205.773438 346.78125 204.984375 347.324219 204.167969 C 347.871094 203.351562 348.375 202.507812 348.839844 201.640625 C 349.300781 200.773438 349.722656 199.886719 350.097656 198.980469 C 350.472656 198.074219 350.804688 197.148438 351.089844 196.207031 C 351.375 195.269531 351.613281 194.316406 351.804688 193.351562 C 351.996094 192.390625 352.140625 191.417969 352.234375 190.441406 C 352.332031 189.460938 352.378906 188.484375 352.378906 187.5 C 352.378906 186.515625 352.332031 185.539062 352.234375 184.558594 C 352.140625 183.582031 351.996094 182.609375 351.804688 181.648438 C 351.613281 180.683594 351.375 179.730469 351.089844 178.792969 C 350.804688 177.851562 350.472656 176.925781 350.097656 176.019531 C 349.722656 175.113281 349.300781 174.222656 348.839844 173.359375 C 348.375 172.492188 347.871094 171.648438 347.324219 170.832031 C 346.78125 170.015625 346.195312 169.226562 345.570312 168.46875 C 344.949219 167.707031 344.289062 166.980469 343.597656 166.285156 C 342.902344 165.59375 342.175781 164.933594 341.414062 164.308594 C 340.65625 163.6875 339.867188 163.101562 339.050781 162.554688 C 338.234375 162.011719 337.394531 161.503906 336.527344 161.042969 C 335.660156 160.578125 334.773438 160.160156 333.867188 159.785156 C 332.960938 159.40625 332.035156 159.078125 331.09375 158.792969 C 330.15625 158.507812 329.203125 158.269531 328.242188 158.078125 C 327.277344 157.882812 326.308594 157.742188 325.328125 157.644531 C 324.351562 157.546875 323.371094 157.5 322.390625 157.5 Z M 322.390625 157.5 " fill-opacity="1" fill-rule="nonzero"/></g><g clip-path="url(#b813193da3)"><path fill="#231f20" d="M 322.390625 277.5 L 52.484375 277.5 C 51.503906 277.5 50.523438 277.546875 49.546875 277.644531 C 48.570312 277.742188 47.597656 277.882812 46.636719 278.078125 C 45.671875 278.269531 44.71875 278.507812 43.78125 278.792969 C 42.839844 279.078125 41.917969 279.40625 41.007812 279.785156 C 40.101562 280.160156 39.214844 280.578125 38.347656 281.042969 C 37.484375 281.503906 36.640625 282.011719 35.824219 282.554688 C 35.007812 283.101562 34.21875 283.6875 33.460938 284.308594 C 32.703125 284.933594 31.976562 285.59375 31.28125 286.285156 C 30.585938 286.980469 29.925781 287.707031 29.304688 288.46875 C 28.679688 289.226562 28.097656 290.015625 27.550781 290.832031 C 27.003906 291.648438 26.5 292.492188 26.039062 293.359375 C 25.574219 294.222656 25.15625 295.113281 24.78125 296.019531 C 24.402344 296.925781 24.074219 297.851562 23.789062 298.792969 C 23.503906 299.730469 23.265625 300.683594 23.074219 301.648438 C 22.882812 302.609375 22.738281 303.582031 22.640625 304.558594 C 22.542969 305.539062 22.496094 306.515625 22.496094 307.5 C 22.496094 308.484375 22.542969 309.460938 22.640625 310.441406 C 22.738281 311.417969 22.882812 312.390625 23.074219 313.351562 C 23.265625 314.316406 23.503906 315.269531 23.789062 316.207031 C 24.074219 317.148438 24.402344 318.074219 24.78125 318.980469 C 25.15625 319.886719 25.574219 320.773438 26.039062 321.640625 C 26.5 322.507812 27.003906 323.351562 27.550781 324.167969 C 28.097656 324.984375 28.679688 325.773438 29.304688 326.53125 C 29.925781 327.292969 30.585938 328.019531 31.28125 328.714844 C 31.976562 329.40625 32.703125 330.066406 33.460938 330.691406 C 34.21875 331.3125 35.007812 331.898438 35.824219 332.445312 C 36.640625 332.988281 37.484375 333.496094 38.347656 333.957031 C 39.214844 334.421875 40.101562 334.839844 41.007812 335.214844 C 41.917969 335.59375 42.839844 335.921875 43.78125 336.207031 C 44.71875 336.492188 45.671875 336.730469 46.636719 336.921875 C 47.597656 337.113281 48.570312 337.257812 49.546875 337.355469 C 50.523438 337.453125 51.503906 337.5 52.484375 337.5 L 322.390625 337.5 C 323.371094 337.5 324.351562 337.453125 325.328125 337.355469 C 326.308594 337.257812 327.277344 337.113281 328.242188 336.921875 C 329.203125 336.730469 330.15625 336.492188 331.09375 336.207031 C 332.035156 335.921875 332.960938 335.59375 333.867188 335.214844 C 334.773438 334.839844 335.660156 334.421875 336.527344 333.957031 C 337.394531 333.496094 338.234375 332.988281 339.050781 332.445312 C 339.867188 331.898438 340.65625 331.3125 341.414062 330.691406 C 342.175781 330.066406 342.902344 329.40625 343.597656 328.714844 C 344.289062 328.019531 344.949219 327.292969 345.570312 326.53125 C 346.195312 325.773438 346.78125 324.984375 347.324219 324.167969 C 347.871094 323.351562 348.375 322.507812 348.839844 321.640625 C 349.300781 320.773438 349.722656 319.886719 350.097656 318.980469 C 350.472656 318.074219 350.804688 317.148438 351.089844 316.207031 C 351.375 315.269531 351.613281 314.316406 351.804688 313.351562 C 351.996094 312.390625 352.140625 311.417969 352.234375 310.441406 C 352.332031 309.460938 352.378906 308.484375 352.378906 307.5 C 352.378906 306.515625 352.332031 305.539062 352.234375 304.558594 C 352.140625 303.582031 351.996094 302.609375 351.804688 301.648438 C 351.613281 300.683594 351.375 299.730469 351.089844 298.792969 C 350.804688 297.851562 350.472656 296.925781 350.097656 296.019531 C 349.722656 295.113281 349.300781 294.222656 348.839844 293.359375 C 348.375 292.492188 347.871094 291.648438 347.324219 290.832031 C 346.78125 290.015625 346.195312 289.226562 345.570312 288.46875 C 344.949219 287.707031 344.289062 286.980469 343.597656 286.285156 C 342.902344 285.59375 342.175781 284.933594 341.414062 284.308594 C 340.65625 283.6875 339.867188 283.101562 339.050781 282.554688 C 338.234375 282.011719 337.394531 281.503906 336.527344 281.042969 C 335.660156 280.578125 334.773438 280.160156 333.867188 279.785156 C 332.960938 279.40625 332.035156 279.078125 331.09375 278.792969 C 330.15625 278.507812 329.203125 278.269531 328.242188 278.078125 C 327.277344 277.882812 326.308594 277.742188 325.328125 277.644531 C 324.351562 277.546875 323.371094 277.5 322.390625 277.5 Z M 322.390625 277.5 " fill-opacity="1" fill-rule="nonzero"/></g></svg>